<?xml version="1.0" encoding="UTF-8" standalone="no"?>
<!-- Generator: Adobe Illustrator 16.0.0, SVG Export Plug-In . SVG Version: 6.00 Build 0)  -->

<svg
   xmlns:dc="http://purl.org/dc/elements/1.1/"
   xmlns:cc="http://creativecommons.org/ns#"
   xmlns:rdf="http://www.w3.org/1999/02/22-rdf-syntax-ns#"
   xmlns:svg="http://www.w3.org/2000/svg"
   xmlns="http://www.w3.org/2000/svg"
   xmlns:sodipodi="http://sodipodi.sourceforge.net/DTD/sodipodi-0.dtd"
   xmlns:inkscape="http://www.inkscape.org/namespaces/inkscape"
   version="1.1"
   x="0px"
   y="0px"
   width="24px"
   height="24px"
   viewBox="0 0 24 24"
   style="enable-background:new 0 0 24 24;"
   xml:space="preserve"
   id="svg2"
   inkscape:version="0.91 r13725"
   sodipodi:docname="menu.svg"><metadata
     id="metadata11"><rdf:RDF><cc:Work
         rdf:about=""><dc:format>image/svg+xml</dc:format><dc:type
           rdf:resource="http://purl.org/dc/dcmitype/StillImage" /></cc:Work></rdf:RDF></metadata><defs
     id="defs9" /><sodipodi:namedview
     pagecolor="#ffffff"
     bordercolor="#666666"
     borderopacity="1"
     objecttolerance="10"
     gridtolerance="10"
     guidetolerance="10"
     inkscape:pageopacity="0"
     inkscape:pageshadow="2"
     inkscape:window-width="1366"
     inkscape:window-height="704"
     id="namedview7"
     showgrid="false"
     inkscape:zoom="27.812867"
     inkscape:cx="7.2956802"
     inkscape:cy="11.468028"
     inkscape:window-x="0"
     inkscape:window-y="0"
     inkscape:window-maximized="1"
     inkscape:current-layer="svg2" /><g
     id="Icons"
     style="opacity:1;fill:#ffffff"><path
       id="menu"
       d="M6,15h12c0.553,0,1,0.447,1,1v1c0,0.553-0.447,1-1,1H6c-0.553,0-1-0.447-1-1v-1C5,15.447,5.447,15,6,15z M5,11v1   c0,0.553,0.447,1,1,1h12c0.553,0,1-0.447,1-1v-1c0-0.553-0.447-1-1-1H6C5.447,10,5,10.447,5,11z M5,6v1c0,0.553,0.447,1,1,1h12   c0.553,0,1-0.447,1-1V6c0-0.553-0.447-1-1-1H6C5.447,5,5,5.447,5,6z"
       style="fill:#ffffff" /></g><g
     id="Guides"
     style="display:none;" /></svg>